<svg width="214" height="36" viewBox="0 0 214 36" fill="none" xmlns="http://www.w3.org/2000/svg">
<path d="M0.0234375 0.734375H8.76562C12.3281 0.734375 14.9219 1.42969 16.5469 2.82031C18.1719 4.19531 18.9844 6.39062 18.9844 9.40625C18.9844 11.3906 18.5547 13.0547 17.6953 14.3984C16.8359 15.7266 15.6641 16.5312 14.1797 16.8125V17.0469C16.1172 17.5312 17.5156 18.4375 18.375 19.7656C19.2344 21.0938 19.6641 22.8594 19.6641 25.0625C19.6641 28.1719 18.8281 30.6094 17.1562 32.375C15.5 34.125 13.2266 35 10.3359 35H0.0234375V0.734375ZM6.02344 14.5156H8.95312C10.2969 14.5156 11.2422 14.1562 11.7891 13.4375C12.3359 12.7188 12.6094 11.6484 12.6094 10.2266C12.6094 8.80469 12.2969 7.78906 11.6719 7.17969C11.0469 6.55469 10.0625 6.24219 8.71875 6.24219H6.02344V14.5156ZM6.02344 19.8359V29.4219H9.23438C10.5625 29.4219 11.5469 29.0156 12.1875 28.2031C12.8438 27.3906 13.1719 26.1328 13.1719 24.4297C13.1719 21.3672 11.8281 19.8359 9.14062 19.8359H6.02344ZM40.5703 35L38.6016 26.3516H29.6719L27.7031 35H21.3281L29.8125 0.59375H38.4609L46.9688 35H40.5703ZM37.4062 20.7031L35.5781 12.7344C35.4688 12.25 35.2188 11.0391 34.8281 9.10156C34.4531 7.14844 34.2266 5.84375 34.1484 5.1875C33.9453 6.53125 33.6875 8.01562 33.375 9.64062C33.0625 11.25 32.25 14.9375 30.9375 20.7031H37.4062ZM71.7891 17.5391C71.7891 23.1953 70.6328 27.5234 68.3203 30.5234C66.0234 33.5078 62.7109 35 58.3828 35H49.9922V0.734375H59.1562C63.1406 0.734375 66.2422 2.21094 68.4609 5.16406C70.6797 8.10156 71.7891 12.2266 71.7891 17.5391ZM65.25 17.7266C65.25 10.0703 63.1406 6.24219 58.9219 6.24219H56.3672V29.4219H58.4297C60.7578 29.4219 62.4766 28.4531 63.5859 26.5156C64.6953 24.5625 65.25 21.6328 65.25 17.7266ZM100.383 17.8203C100.383 23.4922 99.3203 27.8516 97.1953 30.8984C95.0703 33.9453 92.0312 35.4688 88.0781 35.4688C84.1094 35.4688 81.0625 33.9531 78.9375 30.9219C76.8125 27.875 75.75 23.4922 75.75 17.7734C75.75 12.1016 76.8125 7.75781 78.9375 4.74219C81.0625 1.71094 84.125 0.195312 88.125 0.195312C92.0781 0.195312 95.1094 1.71875 97.2188 4.76562C99.3281 7.79688 100.383 12.1484 100.383 17.8203ZM82.2656 17.8203C82.2656 21.7266 82.7578 24.7031 83.7422 26.75C84.7266 28.7969 86.1719 29.8203 88.0781 29.8203C91.9219 29.8203 93.8438 25.8203 93.8438 17.8203C93.8438 9.82031 91.9375 5.82031 88.125 5.82031C86.1875 5.82031 84.7266 6.84375 83.7422 8.89062C82.7578 10.9219 82.2656 13.8984 82.2656 17.8203ZM128.977 17.8203C128.977 23.4922 127.914 27.8516 125.789 30.8984C123.664 33.9453 120.625 35.4688 116.672 35.4688C112.703 35.4688 109.656 33.9531 107.531 30.9219C105.406 27.875 104.344 23.4922 104.344 17.7734C104.344 12.1016 105.406 7.75781 107.531 4.74219C109.656 1.71094 112.719 0.195312 116.719 0.195312C120.672 0.195312 123.703 1.71875 125.812 4.76562C127.922 7.79688 128.977 12.1484 128.977 17.8203ZM110.859 17.8203C110.859 21.7266 111.352 24.7031 112.336 26.75C113.32 28.7969 114.766 29.8203 116.672 29.8203C120.516 29.8203 122.438 25.8203 122.438 17.8203C122.438 9.82031 120.531 5.82031 116.719 5.82031C114.781 5.82031 113.32 6.84375 112.336 8.89062C111.352 10.9219 110.859 13.8984 110.859 17.8203ZM164.766 24.1016C164.766 27.5703 163.875 30.2578 162.094 32.1641C160.328 34.0547 157.797 35 154.5 35H145.852V0.734375H162.117V6.28906H152.227V14.1172H154.242C157.711 14.1172 160.328 14.9531 162.094 16.625C163.875 18.2969 164.766 20.7891 164.766 24.1016ZM152.227 29.4688H154.195C156.961 29.4688 158.344 27.7578 158.344 24.3359C158.344 22.6953 157.992 21.5156 157.289 20.7969C156.602 20.0625 155.43 19.6953 153.773 19.6953H152.227V29.4688ZM192.82 17.8203C192.82 23.4922 191.758 27.8516 189.633 30.8984C187.508 33.9453 184.469 35.4688 180.516 35.4688C176.547 35.4688 173.5 33.9531 171.375 30.9219C169.25 27.875 168.188 23.4922 168.188 17.7734C168.188 12.1016 169.25 7.75781 171.375 4.74219C173.5 1.71094 176.562 0.195312 180.562 0.195312C184.516 0.195312 187.547 1.71875 189.656 4.76562C191.766 7.79688 192.82 12.1484 192.82 17.8203ZM174.703 17.8203C174.703 21.7266 175.195 24.7031 176.18 26.75C177.164 28.7969 178.609 29.8203 180.516 29.8203C184.359 29.8203 186.281 25.8203 186.281 17.8203C186.281 9.82031 184.375 5.82031 180.562 5.82031C178.625 5.82031 177.164 6.84375 176.18 8.89062C175.195 10.9219 174.703 13.8984 174.703 17.8203ZM207.422 35H201.07V6.33594H194.508V0.734375H213.984V6.33594H207.422V35Z" fill="white"/>
</svg>
