<svg width="52" height="75" viewBox="0 0 52 75" fill="none" xmlns="http://www.w3.org/2000/svg">
<path d="M24.8141 18.9618C28.5917 18.9618 31.6541 15.912 31.6541 12.1498C31.6541 8.38757 28.5917 5.33771 24.8141 5.33771C21.0364 5.33771 17.974 8.38757 17.974 12.1498C17.974 15.912 21.0364 18.9618 24.8141 18.9618Z" fill="#3EA1F0"/>
<path d="M51.1346 54.6045C40.9822 41.9404 41.719 42.8022 41.2542 42.4237L36.5645 23.4323L50.0225 5.2363C51.1036 3.77474 50.7901 1.71713 49.3226 0.640645C47.8553 -0.435844 45.7892 -0.123967 44.708 1.33776L31.1046 19.73C30.9114 19.7685 22.8066 21.7307 22.3305 21.9143L5.65465 5.00806C4.37762 3.71311 2.28781 3.69453 0.987535 4.96665C-0.312742 6.23878 -0.331403 8.31986 0.945956 9.61481L19.8935 28.8242L25.1344 50.0471L23.6064 55.434L10.2725 53.0836C8.12048 52.7048 6.06358 54.1349 5.68248 56.2801C5.30122 58.4251 6.73819 60.4716 8.892 60.8513C27.0833 64.0579 25.9483 63.8843 26.447 63.8843C28.1896 63.8843 29.7665 62.7348 30.255 61.0117C34.0353 47.6833 33.7996 48.6059 33.8553 48.1033L35.4857 47.704C35.6511 47.9444 34.9729 47.0878 42.8953 56.9704L32.9428 68.4823C31.5158 70.1331 31.7026 72.6234 33.3599 74.0447C35.0167 75.4653 37.5176 75.2808 38.9452 73.6293L51.0406 59.6388C52.2836 58.2016 52.3229 56.0867 51.1346 54.6045Z" fill="#3EA1F0"/>
</svg>
