<svg width="79" height="53" viewBox="0 0 79 53" fill="none" xmlns="http://www.w3.org/2000/svg">
<path d="M52.2043 26.8951L78.5 43.3251V9.77127L52.2043 26.8951Z" fill="#3EA1F0"/>
<path d="M0.5 9.77127V43.3251L26.7957 26.8951L0.5 9.77127Z" fill="#3EA1F0"/>
<path d="M73.625 0H5.375C2.94237 0 1.01188 1.79236 0.64625 4.10027L39.5 29.4005L78.3538 4.10027C77.9881 1.79236 76.0576 0 73.625 0Z" fill="#3EA1F0"/>
<path d="M47.7387 29.8053L40.8406 34.2958C40.4311 34.5608 39.968 34.6909 39.5 34.6909C39.032 34.6909 38.5689 34.5608 38.1594 34.2958L31.2612 29.8005L0.656 48.9335C1.03137 51.2221 2.95213 53 5.375 53H73.625C76.0479 53 77.9686 51.2221 78.344 48.9335L47.7387 29.8053Z" fill="#3EA1F0"/>
</svg>
